# xmcd CD database file
#
# Track frame offsets:
#	150
#	21366
#	46030
#	65160
#	90507
#	120114
#	146221
#	168324
#	185977
#	201851
#	250418
#
# Disc length: 3595 seconds
#
# Revision: 0
# Processed by: cddbd v1.5.2PL0 Copyright (c) Steve Scherf et al.
# Submitted via: CDex 1.51
#
DISCID=9d0e090b
DTITLE=Radaid - L'INTENT
DYEAR=2009
DGENRE=New Age
TTITLE0=Cashine
TTITLE1=Nada que sea real
TTITLE2=Chez-Nous
TTITLE3=La gran victoria sobre la muerte
TTITLE4=Mireya
TTITLE5=China warrior
TTITLE6=These times these days
TTITLE7=Una aventura confusa
TTITLE8=Amala Kamala...
TTITLE9=The cravings of the dead
TTITLE10=Butterfly
EXTD=YEAR: 2009
EXTT0=
EXTT1=
EXTT2=
EXTT3=
EXTT4=
EXTT5=
EXTT6=
EXTT7=
EXTT8=
EXTT9=
EXTT10=
PLAYORDER=
